<mxfile host="Electron" modified="2024-05-03T14:35:21.639Z" agent="Mozilla/5.0 (Windows NT 10.0; Win64; x64) AppleWebKit/537.36 (KHTML, like Gecko) draw.io/24.2.5 Chrome/120.0.6099.109 Electron/28.1.0 Safari/537.36" etag="mcJ6P6NZTYuKTstBg-hp" version="24.2.5" type="device">
  <diagram name="Backups" id="2YBvvXClWsGukQMizWep">
    <mxGraphModel dx="1434" dy="836" grid="1" gridSize="10" guides="1" tooltips="1" connect="1" arrows="1" fold="1" page="1" pageScale="1" pageWidth="850" pageHeight="1100" math="0" shadow="0">
      <root>
        <mxCell id="0" />
        <mxCell id="1" parent="0" />
        <mxCell id="aM9ryv3xv72pqoxQDRHE-1" value="B2 Host" style="shape=umlLifeline;perimeter=lifelinePerimeter;whiteSpace=wrap;html=1;container=0;dropTarget=0;collapsible=0;recursiveResize=0;outlineConnect=0;portConstraint=eastwest;newEdgeStyle={&quot;edgeStyle&quot;:&quot;elbowEdgeStyle&quot;,&quot;elbow&quot;:&quot;vertical&quot;,&quot;curved&quot;:0,&quot;rounded&quot;:0};" parent="1" vertex="1">
          <mxGeometry x="270" y="210" width="100" height="300" as="geometry" />
        </mxCell>
        <mxCell id="aM9ryv3xv72pqoxQDRHE-2" value="" style="html=1;points=[];perimeter=orthogonalPerimeter;outlineConnect=0;targetShapes=umlLifeline;portConstraint=eastwest;newEdgeStyle={&quot;edgeStyle&quot;:&quot;elbowEdgeStyle&quot;,&quot;elbow&quot;:&quot;vertical&quot;,&quot;curved&quot;:0,&quot;rounded&quot;:0};" parent="aM9ryv3xv72pqoxQDRHE-1" vertex="1">
          <mxGeometry x="45" y="70" width="10" height="190" as="geometry" />
        </mxCell>
        <mxCell id="aM9ryv3xv72pqoxQDRHE-5" value="Backup&lt;br&gt;Host" style="shape=umlLifeline;perimeter=lifelinePerimeter;whiteSpace=wrap;html=1;container=0;dropTarget=0;collapsible=0;recursiveResize=0;outlineConnect=0;portConstraint=eastwest;newEdgeStyle={&quot;edgeStyle&quot;:&quot;elbowEdgeStyle&quot;,&quot;elbow&quot;:&quot;vertical&quot;,&quot;curved&quot;:0,&quot;rounded&quot;:0};" parent="1" vertex="1">
          <mxGeometry x="480" y="210" width="100" height="300" as="geometry" />
        </mxCell>
        <mxCell id="aM9ryv3xv72pqoxQDRHE-6" value="" style="html=1;points=[];perimeter=orthogonalPerimeter;outlineConnect=0;targetShapes=umlLifeline;portConstraint=eastwest;newEdgeStyle={&quot;edgeStyle&quot;:&quot;elbowEdgeStyle&quot;,&quot;elbow&quot;:&quot;vertical&quot;,&quot;curved&quot;:0,&quot;rounded&quot;:0};" parent="aM9ryv3xv72pqoxQDRHE-5" vertex="1">
          <mxGeometry x="45" y="70" width="10" height="190" as="geometry" />
        </mxCell>
        <mxCell id="aM9ryv3xv72pqoxQDRHE-7" value="Acquire token" style="html=1;verticalAlign=bottom;endArrow=none;edgeStyle=elbowEdgeStyle;elbow=vertical;curved=0;rounded=0;startArrow=classic;startFill=1;endFill=0;" parent="1" source="aM9ryv3xv72pqoxQDRHE-2" target="aM9ryv3xv72pqoxQDRHE-6" edge="1">
          <mxGeometry relative="1" as="geometry">
            <mxPoint x="425" y="300" as="sourcePoint" />
            <Array as="points">
              <mxPoint x="410" y="290" />
            </Array>
            <mxPoint as="offset" />
          </mxGeometry>
        </mxCell>
        <mxCell id="b3kAI05D4prKaq0DsMJD-5" value="FTP data transfert" style="html=1;verticalAlign=bottom;endArrow=block;edgeStyle=elbowEdgeStyle;elbow=vertical;curved=0;rounded=0;" parent="1" target="aM9ryv3xv72pqoxQDRHE-6" edge="1">
          <mxGeometry relative="1" as="geometry">
            <mxPoint x="325" y="330" as="sourcePoint" />
            <Array as="points">
              <mxPoint x="410" y="330" />
            </Array>
            <mxPoint x="495" y="330" as="targetPoint" />
            <mxPoint as="offset" />
          </mxGeometry>
        </mxCell>
        <mxCell id="b3kAI05D4prKaq0DsMJD-6" value="CRUD &lt;font style=&quot;font-size: 20px;&quot;&gt;{&lt;/font&gt;" style="text;html=1;align=right;verticalAlign=middle;resizable=0;points=[];autosize=1;strokeColor=none;fillColor=none;" parent="1" vertex="1">
          <mxGeometry x="316" y="328" width="70" height="40" as="geometry" />
        </mxCell>
        <mxCell id="b3kAI05D4prKaq0DsMJD-8" value="Data &amp;gt; 0&lt;br&gt;&lt;div style=&quot;&quot;&gt;&lt;span style=&quot;background-color: initial;&quot;&gt;Dara &amp;gt;= previous data&lt;/span&gt;&lt;/div&gt;" style="text;html=1;align=left;verticalAlign=middle;resizable=0;points=[];autosize=1;strokeColor=none;fillColor=none;" parent="1" vertex="1">
          <mxGeometry x="388" y="329" width="140" height="40" as="geometry" />
        </mxCell>
        <mxCell id="b3kAI05D4prKaq0DsMJD-9" value="Release token" style="html=1;verticalAlign=bottom;endArrow=block;edgeStyle=elbowEdgeStyle;elbow=vertical;curved=0;rounded=0;" parent="1" target="aM9ryv3xv72pqoxQDRHE-6" edge="1">
          <mxGeometry relative="1" as="geometry">
            <mxPoint x="325" y="420" as="sourcePoint" />
            <Array as="points">
              <mxPoint x="410" y="420" />
            </Array>
            <mxPoint x="495" y="420" as="targetPoint" />
            <mxPoint as="offset" />
          </mxGeometry>
        </mxCell>
        <mxCell id="b3kAI05D4prKaq0DsMJD-18" value="&lt;font style=&quot;font-size: 30px;&quot;&gt;Backups&lt;/font&gt;" style="text;html=1;align=left;verticalAlign=middle;resizable=0;points=[];autosize=1;strokeColor=none;fillColor=none;" parent="1" vertex="1">
          <mxGeometry x="31" y="13" width="140" height="50" as="geometry" />
        </mxCell>
        <mxCell id="b3kAI05D4prKaq0DsMJD-19" value="&lt;font size=&quot;1&quot; style=&quot;&quot;&gt;&lt;u style=&quot;font-size: 22px;&quot;&gt;Export&lt;/u&gt;&lt;/font&gt;" style="text;html=1;align=left;verticalAlign=middle;resizable=0;points=[];autosize=1;strokeColor=none;fillColor=none;" parent="1" vertex="1">
          <mxGeometry x="31" y="88" width="90" height="40" as="geometry" />
        </mxCell>
        <mxCell id="b3kAI05D4prKaq0DsMJD-20" value="&lt;font size=&quot;1&quot; style=&quot;&quot;&gt;&lt;u style=&quot;font-size: 22px;&quot;&gt;Import&lt;/u&gt;&lt;/font&gt;" style="text;html=1;align=left;verticalAlign=middle;resizable=0;points=[];autosize=1;strokeColor=none;fillColor=none;" parent="1" vertex="1">
          <mxGeometry x="31" y="631" width="90" height="40" as="geometry" />
        </mxCell>
        <mxCell id="b3kAI05D4prKaq0DsMJD-21" value="B2 Host" style="whiteSpace=wrap;html=1;" parent="1" vertex="1">
          <mxGeometry x="150" y="740" width="120" height="100" as="geometry" />
        </mxCell>
        <mxCell id="b3kAI05D4prKaq0DsMJD-22" value="Backup&lt;br&gt;Host" style="whiteSpace=wrap;html=1;" parent="1" vertex="1">
          <mxGeometry x="590" y="740" width="120" height="100" as="geometry" />
        </mxCell>
        <mxCell id="b3kAI05D4prKaq0DsMJD-24" value="Request backup" style="edgeStyle=none;orthogonalLoop=1;jettySize=auto;html=1;rounded=0;exitX=1.024;exitY=0.29;exitDx=0;exitDy=0;exitPerimeter=0;entryX=-0.016;entryY=0.286;entryDx=0;entryDy=0;entryPerimeter=0;" parent="1" source="b3kAI05D4prKaq0DsMJD-21" target="b3kAI05D4prKaq0DsMJD-22" edge="1">
          <mxGeometry width="100" relative="1" as="geometry">
            <mxPoint x="220" y="799" as="sourcePoint" />
            <mxPoint x="646.52" y="798.8500000000001" as="targetPoint" />
            <Array as="points" />
          </mxGeometry>
        </mxCell>
        <mxCell id="b3kAI05D4prKaq0DsMJD-25" value="FTP data transfert" style="edgeStyle=none;orthogonalLoop=1;jettySize=auto;html=1;rounded=0;exitX=-0.022;exitY=0.688;exitDx=0;exitDy=0;exitPerimeter=0;entryX=1.011;entryY=0.69;entryDx=0;entryDy=0;entryPerimeter=0;" parent="1" source="b3kAI05D4prKaq0DsMJD-22" target="b3kAI05D4prKaq0DsMJD-21" edge="1">
          <mxGeometry width="100" relative="1" as="geometry">
            <mxPoint x="647" y="839" as="sourcePoint" />
            <mxPoint x="220" y="839" as="targetPoint" />
            <Array as="points" />
          </mxGeometry>
        </mxCell>
        <mxCell id="b3kAI05D4prKaq0DsMJD-26" value="" style="edgeStyle=none;orthogonalLoop=1;jettySize=auto;html=1;rounded=0;endArrow=none;endFill=0;" parent="1" edge="1">
          <mxGeometry width="100" relative="1" as="geometry">
            <mxPoint x="4" y="599" as="sourcePoint" />
            <mxPoint x="847" y="600" as="targetPoint" />
            <Array as="points" />
          </mxGeometry>
        </mxCell>
      </root>
    </mxGraphModel>
  </diagram>
</mxfile>
